<svg viewBox="0 0 91 40" xmlns="http://www.w3.org/2000/svg"><g fill="#ffffff" fill-rule="evenodd"><path d="M14.982 29.251l10.927.014-5.453 10.673c.996-2.142 1.027-4.794-.125-7.043-1.152-2.249-3.205-3.545-5.349-3.644zm7.434-14.604l10.926.014-5.453 10.673c.996-2.141 1.027-4.794-.125-7.043-1.152-2.249-3.205-3.545-5.348-3.644zM29.927 0l10.927.014L35.4 10.687c.996-2.142 1.027-4.794-.125-7.043C34.124 1.394 32.07.099 29.927 0zM14.926 0l10.926.014-5.453 10.673c.996-2.142 1.027-4.794-.125-7.043C19.122 1.394 17.069.099 14.926 0zM0 0l10.926.014-5.452 10.673c.995-2.142 1.026-4.794-.125-7.043C4.197 1.394 2.143.099 0 0zM64.498 0v34.13h8.911v5.784H58.56V0h5.94zM55.59 0v5.843h-8.833v11.453h5.915v5.785h-5.915v16.833h-5.94V10.702L46.269.013 55.59 0zm26.653 0v39.914h-5.94V0h5.94zM86.519 39.914v-3.06h.983v-.373h-2.366v.372h.982v3.061h.4zm1.84 0v-1.337l-.04-1.436 1.002 2.773h.31l1.003-2.78-.037 1.443v1.337H91v-3.433h-.523l-1 2.801-1-2.801h-.521v3.433h.403z"></path></g></svg>
